<svg width="900" height="600" viewBox="0 0 900 600" fill="none" xmlns="http://www.w3.org/2000/svg">
<g clip-path="url(#clip0)">
<path d="M0 600L900 600L900 0L0 0L0 600Z" fill="white"/>
<path d="M-160.349 965.574C-241.249 950.874 -304.049 870.574 -353.549 779.274C-402.949 687.874 -438.949 585.474 -406.749 506.274C-374.549 427.074 -274.049 371.074 -198.449 305.774C-122.849 240.574 -71.9492 166.074 -9.14917 160.374C53.6508 154.574 128.551 217.574 207.551 248.874C286.551 280.074 369.751 279.574 409.251 319.774C448.751 360.074 444.651 441.174 465.051 524.174C485.551 607.174 530.551 692.074 508.851 749.574C487.251 807.074 399.051 837.074 322.951 853.974C246.851 870.874 182.851 874.674 101.251 902.074C19.7508 929.374 -79.3492 980.274 -160.349 965.574Z" fill="#60A5FA"/>
</g>
<defs>
<clipPath id="clip0">
<rect width="900" height="600" fill="white" transform="translate(900 600) rotate(-180)"/>
</clipPath>
</defs>
</svg>
