<svg fill="none" height="80" viewBox="0 0 1440 80" width="1440" xmlns="http://www.w3.org/2000/svg"><path d="m-15 8 10.55167-1.325c10.65312-1.425 32.06083-3.925 53.36713 6.65 20.7989 10.675 41.5979 34.675 62.9042 45.35 21.408 10.575 42.612 8.075 63.919 0 21.002-7.925 42.612-21.425 62.904-20 21.61 1.325 42.612 17.325 63.919 25.325 21.204 8 42.612 8 63.918 2.675 20.799-5.425 41.598-15.925 62.905-17.35 21.407-1.325 42.612 6.675 63.918 12 21.002 5.425 42.613 7.925 62.904 4 21.611-4.075 42.613-14.575 63.919-14.65 21.306.075 42.613 10.575 63.919 8 20.9-2.675 41.598-18.675 62.904-20 21.509-1.425 42.613 12.075 63.919 16 21.103 4.075 42.612-1.425 63.919-2.675 20.697-1.25 41.598 1.25 62.904 5.325 21.306 3.925 42.612 9.425 63.916 6.675 20.9-2.75 41.6-13.25 62.91-22.675 21.51-9.325 42.61-17.325 63.92-18.65 21.1-1.425 42.61 4.075 63.91 9.325 20.7 5.25 41.6 10.75 62.91 9.325 21.3-1.325 42.61-9.325 63.92-4 21 5.425 42.61 23.925 62.9 26.675 21.61 2.75 42.61-10.75 53.77-17.325l10.15-6.675v-40h-10.55c-10.65 0-32.06 0-53.37 0-20.8 0-41.6 0-62.9 0-21.41 0-42.62 0-63.92 0-21 0-42.61 0-62.91 0-21.61 0-42.61 0-63.91 0-21.21 0-42.62 0-63.92 0-20.8 0-41.6 0-62.91 0-21.405 0-42.61 0-63.916 0-21.002 0-42.613 0-62.904 0-21.611 0-42.613 0-63.919 0s-42.613 0-63.919 0c-20.9 0-41.598 0-62.904 0-21.509 0-42.613 0-63.919 0-21.103 0-42.612 0-63.919 0-20.697 0-41.598 0-62.904 0s-42.612 0-63.918 0c-20.901 0-41.598 0-62.905 0-21.509 0-42.612 0-63.918 0-21.104 0-42.613 0-63.919 0-20.698 0-41.598 0-62.904 0-21.307 0-42.613 0-63.919 0-21.002 0-42.6126 0-62.9042 0-21.6107 0-42.61255 0-53.77297 0h-10.14583z" fill="#3e4c59"/></svg>