<svg fill="none" height="301" viewBox="0 0 557 301" width="557" xmlns="http://www.w3.org/2000/svg" xmlns:xlink="http://www.w3.org/1999/xlink"><clipPath id="a"><path d="m0 0h557v301h-557z"/></clipPath><g clip-path="url(#a)"><g fill="#81defd"><path d="m557 193.199c.007 8.177-1.116 16.316-3.335 24.185-2.145 7.586-5.301 14.848-9.383 21.591 0 24.428-16.466 45.541-40.367 55.585-9.988 4.155-20.702 6.277-31.517 6.241h-366.661c-19.5968 0-37.7577-5.295-52.6516-14.315-4.2625-2.57-8.3061-5.488-12.0894-8.724-16.5542-14.247-26.8178-33.936-26.8178-55.682-9.29077-14.327-14.2171398-31.053-14.17821525-48.136 0-35.769 21.12611525-66.527 51.39101525-80.1059 4.0189-1.8024 8.1716-3.2891 12.4205-4.4469 1.5029-.4095 3.022-.7769 4.5573-1.1019 4.0928-.8729 8.2442-1.4433 12.4205-1.7066 1.5094-.0943 3.0268-.1479 4.5524-.1609h.8375c1.6846 0 3.3546.0585 5.0149.156l.5453-.9264c.6687-1.1182 1.3536-2.225 2.0547-3.3205 1.2659-1.9959 2.5935-3.9625 3.9828-5.8999 1.4541-2.0446 2.9711-4.0567 4.5521-6.0363l.404-.4876c.896-1.1182 1.812-2.2234 2.746-3.3157 2.922-3.4098 6.005-6.7173 9.251-9.9224 35.11-34.463 90.114-56.6484312 151.948-56.6484312 48.115 0 92.095 13.4331312 125.783 35.6283312 12.762-7.2327 27.179-11.0277 41.843-11.0147 47.589 0 86.179 39.1877 86.179 87.5278-.007 3.058-.169 6.115-.487 9.157 11.472 8.132 20.822 18.907 27.262 31.418 6.44 12.51 9.781 26.388 9.742 40.462z" opacity=".1"/><path d="m114.74 56.6484v9.9225h-9.251c2.899-3.4067 5.982-6.7142 9.251-9.9225z" opacity=".2"/><path d="m131.718 54.1324h-12.421v12.4385h12.421z" opacity=".2"/><path d="m148.691 54.1324h-12.421v12.4385h12.421z" opacity=".2"/><path d="m165.669 54.1324h-12.421v12.4385h12.421z" opacity=".2"/><path d="m182.641 54.1324h-12.42v12.4385h12.42z" opacity=".2"/><path d="m199.619 54.1324h-12.42v12.4385h12.42z" opacity=".2"/><path d="m216.597 54.1324h-12.42v12.4385h12.42z"/><path d="m233.57 54.1324h-12.421v12.4385h12.421z" opacity=".2"/><path d="m250.548 54.1324h-12.421v12.4385h12.421z" opacity=".2"/><path d="m267.521 54.1324h-12.421v12.4385h12.421z" opacity=".2"/><path d="m284.498 54.1324h-12.42v12.4385h12.42z"/><path d="m301.476 54.1324h-12.42v12.4385h12.42z" opacity=".2"/><path d="m318.449 54.1324h-12.42v12.4385h12.42z" opacity=".2"/><path d="m335.427 54.1324h-12.421v12.4385h12.421z" opacity=".2"/><path d="m352.405 54.1324h-12.421v12.4385h12.421z" opacity=".2"/><path d="m369.378 54.1324h-12.421v12.4385h12.421z" opacity=".2"/><path d="m386.355 54.1324h-12.42v12.4385h12.42z" opacity=".2"/><path d="m403.328 54.1324h-12.42v12.4385h12.42z"/><path d="m420.306 54.1324h-12.42v12.4385h12.42z"/><path d="m437.284 54.1324h-12.421v12.4385h12.421z" opacity=".2"/><path d="m454.257 54.1324h-12.421v12.4385h12.421z" opacity=".2"/><path d="m471.235 54.1324h-12.421v12.4385h12.421z"/><path d="m488.208 54.1324h-12.421v12.4385h12.421z"/><path d="m97.7672 76.4251v5.8998h-3.9828c1.2659-2.0088 2.5935-3.9755 3.9828-5.8998z"/><path d="m114.74 69.8865h-12.42v12.4385h12.42z" opacity=".2"/><path d="m131.718 69.8865h-12.421v12.4385h12.421z"/><path d="m148.691 69.8865h-12.421v12.4385h12.421z" opacity=".2"/><path d="m165.669 69.8865h-12.421v12.4385h12.421z" opacity=".7"/><path d="m182.641 69.8865h-12.42v12.4385h12.42z" opacity=".2"/><path d="m199.619 69.8865h-12.42v12.4385h12.42z" opacity=".4"/><path d="m216.597 69.8865h-12.42v12.4385h12.42z"/><path d="m233.57 69.8865h-12.421v12.4385h12.421z" opacity=".4"/><path d="m250.548 69.8865h-12.421v12.4385h12.421z" opacity=".2"/><path d="m267.521 69.8865h-12.421v12.4385h12.421z" opacity=".4"/><path d="m284.498 69.8865h-12.42v12.4385h12.42z"/><path d="m301.476 69.8865h-12.42v12.4385h12.42z" opacity=".4"/><path d="m318.449 69.8865h-12.42v12.4385h12.42z" opacity=".4"/><path d="m335.427 69.8865h-12.421v12.4385h12.421z" opacity=".2"/><path d="m352.405 69.8865h-12.421v12.4385h12.421z" opacity=".4"/><path d="m369.378 69.8865h-12.421v12.4385h12.421z" opacity=".4"/><path d="m386.355 69.8865h-12.42v12.4385h12.42z" opacity=".2"/><path d="m403.328 69.8865h-12.42v12.4385h12.42z" opacity=".2"/><path d="m420.306 69.8865h-12.42v12.4385h12.42z" opacity=".4"/><path d="m437.284 69.8865h-12.421v12.4385h12.421z" opacity=".2"/><path d="m454.257 69.8865h-12.421v12.4385h12.421z"/><path d="m471.235 69.8865h-12.421v12.4385h12.421z"/><path d="m488.208 69.8865h-12.421v12.4385h12.421z"/><path d="m63.8115 89.3902v8.6937h-12.4205v-4.2469c4.0189-1.8023 8.1715-3.2891 12.4205-4.4468z" opacity=".2"/><path d="m80.7893 86.5816v11.5023h-12.4205v-9.7957z" opacity=".2"/><path d="m97.7623 85.6454h-12.4205v12.4385h12.4205z"/><path d="m114.74 85.6454h-12.42v12.4385h12.42z" opacity=".7"/><path d="m131.718 85.6454h-12.421v12.4385h12.421z"/><path d="m148.691 85.6454h-12.421v12.4385h12.421z" opacity=".7"/><path d="m165.669 85.6454h-12.421v12.4385h12.421z" opacity=".7"/><path d="m182.641 85.6454h-12.42v12.4385h12.42z" opacity=".2"/><path d="m199.619 85.6454h-12.42v12.4385h12.42z" opacity=".4"/><path d="m216.597 85.6454h-12.42v12.4385h12.42z" opacity=".4"/><path d="m233.57 85.6454h-12.421v12.4385h12.421z"/><path d="m250.548 85.6454h-12.421v12.4385h12.421z" opacity=".2"/><path d="m267.521 85.6454h-12.421v12.4385h12.421z" opacity=".4"/><path d="m284.498 85.6454h-12.42v12.4385h12.42z"/><path d="m301.476 85.6454h-12.42v12.4385h12.42z" opacity=".2"/><path d="m318.449 85.6454h-12.42v12.4385h12.42z" opacity=".4"/><path d="m335.427 85.6454h-12.421v12.4385h12.421z" opacity=".2"/><path d="m352.405 85.6454h-12.421v12.4385h12.421z"/><path d="m369.378 85.6454h-12.421v12.4385h12.421z" opacity=".2"/><path d="m386.355 85.6454h-12.42v12.4385h12.42z" opacity=".7"/><path d="m403.328 85.6454h-12.42v12.4385h12.42z" opacity=".7"/><path d="m420.306 85.6454h-12.42v12.4385h12.42z" opacity=".4"/><path d="m437.284 85.6454h-12.421v12.4385h12.421z" opacity=".2"/><path d="m454.257 85.6454h-12.421v12.4385h12.421z"/><path d="m471.235 85.6454h-12.421v12.4385h12.421z"/><path d="m488.208 85.6454h-12.421v12.4385h12.421z"/><path d="m63.8115 101.4h-12.4205v12.438h12.4205z" opacity=".2"/><path d="m80.7893 101.4h-12.4205v12.438h12.4205z" opacity=".2"/><path d="m97.7623 101.4h-12.4205v12.438h12.4205z" opacity=".2"/><path d="m114.74 101.4h-12.42v12.438h12.42z" opacity=".2"/><path d="m131.718 101.4h-12.421v12.438h12.421z"/><path d="m148.691 101.4h-12.421v12.438h12.421z" opacity=".7"/><path d="m165.669 101.4h-12.421v12.438h12.421z" opacity=".7"/><path d="m182.641 101.4h-12.42v12.438h12.42z" opacity=".2"/><path d="m199.619 101.4h-12.42v12.438h12.42z" opacity=".2"/><path d="m216.597 101.4h-12.42v12.438h12.42z" opacity=".4"/><path d="m233.57 101.4h-12.421v12.438h12.421z" opacity=".4"/><path d="m250.548 101.4h-12.421v12.438h12.421z"/><path d="m267.521 101.4h-12.421v12.438h12.421z" opacity=".2"/><path d="m284.498 101.4h-12.42v12.438h12.42z" opacity=".4"/><path d="m301.476 101.4h-12.42v12.438h12.42z" opacity=".4"/><path d="m318.449 101.4h-12.42v12.438h12.42z" opacity=".4"/><path d="m335.427 101.4h-12.421v12.438h12.421z" opacity=".4"/><path d="m352.405 101.4h-12.421v12.438h12.421z" opacity=".2"/><path d="m369.378 101.4h-12.421v12.438h12.421z" opacity=".2"/><path d="m386.355 101.4h-12.42v12.438h12.42z" opacity=".2"/><path d="m403.328 101.4h-12.42v12.438h12.42z" opacity=".2"/><path d="m420.306 101.4h-12.42v12.438h12.42z" opacity=".7"/><path d="m437.284 101.4h-12.421v12.438h12.421z" opacity=".7"/><path d="m454.257 101.4h-12.421v12.438h12.421z" opacity=".4"/><path d="m471.235 101.4h-12.421v12.438h12.421z" opacity=".2"/><path d="m488.208 101.4h-12.421v12.438h12.421z"/><path d="m63.8115 117.158h-12.4205v12.439h12.4205z" opacity=".2"/><path d="m80.7893 117.158h-12.4205v12.439h12.4205z" opacity=".2"/><path d="m97.7623 117.158h-12.4205v12.439h12.4205z" opacity=".4"/><path d="m114.74 117.158h-12.42v12.439h12.42z" opacity=".2"/><path d="m131.718 117.158h-12.421v12.439h12.421z" opacity=".2"/><path d="m148.691 117.158h-12.421v12.439h12.421z" opacity=".7"/><path d="m165.669 117.158h-12.421v12.439h12.421z" opacity=".7"/><path d="m182.641 117.158h-12.42v12.439h12.42z" opacity=".2"/><path d="m199.619 117.158h-12.42v12.439h12.42z" opacity=".2"/><path d="m216.597 117.158h-12.42v12.439h12.42z" opacity=".4"/><path d="m233.57 117.158h-12.421v12.439h12.421z"/><path d="m250.548 117.158h-12.421v12.439h12.421z" opacity=".2"/><path d="m267.521 117.158h-12.421v12.439h12.421z"/><path d="m284.498 117.158h-12.42v12.439h12.42z"/><path d="m301.476 117.158h-12.42v12.439h12.42z"/><path d="m318.449 117.158h-12.42v12.439h12.42z" opacity=".2"/><path d="m335.427 117.158h-12.421v12.439h12.421z"/><path d="m352.405 117.158h-12.421v12.439h12.421z" opacity=".2"/><path d="m369.378 117.158h-12.421v12.439h12.421z" opacity=".2"/><path d="m386.355 117.158h-12.42v12.439h12.42z" opacity=".2"/><path d="m403.328 117.158h-12.42v12.439h12.42z" opacity=".2"/><path d="m420.306 117.158h-12.42v12.439h12.42z" opacity=".2"/><path d="m437.284 117.158h-12.421v12.439h12.421z" opacity=".7"/><path d="m454.257 117.158h-12.421v12.439h12.421z" opacity=".2"/><path d="m471.235 117.158h-12.421v12.439h12.421z" opacity=".2"/><path d="m488.208 117.158h-12.421v12.439h12.421z"/><path d="m63.8115 132.913h-12.4205v12.438h12.4205z" opacity=".2"/><path d="m80.7893 132.913h-12.4205v12.438h12.4205z" opacity=".2"/><path d="m97.7623 132.913h-12.4205v12.438h12.4205z" opacity=".2"/><path d="m114.74 132.913h-12.42v12.438h12.42z" opacity=".4"/><path d="m131.718 132.913h-12.421v12.438h12.421z" opacity=".2"/><path d="m148.691 132.913h-12.421v12.438h12.421z" opacity=".2"/><path d="m165.669 132.913h-12.421v12.438h12.421z" opacity=".7"/><path d="m182.641 132.913h-12.42v12.438h12.42z" opacity=".2"/><path d="m199.619 132.913h-12.42v12.438h12.42z" opacity=".2"/><path d="m216.597 132.913h-12.42v12.438h12.42z" opacity=".2"/><path d="m233.57 132.913h-12.421v12.438h12.421z"/><path d="m250.548 132.913h-12.421v12.438h12.421z" opacity=".2"/><path d="m267.521 132.913h-12.421v12.438h12.421z"/><path d="m284.498 132.913h-12.42v12.438h12.42z"/><path d="m301.476 132.913h-12.42v12.438h12.42z" opacity=".2"/><path d="m318.449 132.913h-12.42v12.438h12.42z" opacity=".2"/><path d="m335.427 132.913h-12.421v12.438h12.421z" opacity=".2"/><path d="m352.405 132.913h-12.421v12.438h12.421z" opacity=".2"/><path d="m369.378 132.913h-12.421v12.438h12.421z" opacity=".2"/><path d="m386.355 132.913h-12.42v12.438h12.42z" opacity=".2"/><path d="m403.328 132.913h-12.42v12.438h12.42z" opacity=".2"/><path d="m420.306 132.913h-12.42v12.438h12.42z" opacity=".2"/><path d="m437.284 132.913h-12.421v12.438h12.421z" opacity=".2"/><path d="m454.257 132.913h-12.421v12.438h12.421z" opacity=".2"/><path d="m471.235 132.913h-12.421v12.438h12.421z" opacity=".4"/><path d="m488.208 132.913h-12.421v12.438h12.421z"/><path d="m63.8115 148.672h-12.4205v12.438h12.4205z" opacity=".7"/><path d="m80.7893 148.672h-12.4205v12.438h12.4205z" opacity=".7"/><path d="m97.7623 148.672h-12.4205v12.438h12.4205z" opacity=".7"/><path d="m114.74 148.672h-12.42v12.438h12.42z" opacity=".7"/><path d="m131.718 148.672h-12.421v12.438h12.421z" opacity=".7"/><path d="m148.691 148.672h-12.421v12.438h12.421z" opacity=".2"/><path d="m165.669 148.672h-12.421v12.438h12.421z" opacity=".2"/><path d="m182.641 148.672h-12.42v12.438h12.42z" opacity=".2"/><path d="m199.619 148.672h-12.42v12.438h12.42z" opacity=".2"/><path d="m216.597 148.672h-12.42v12.438h12.42z" opacity=".2"/><path d="m233.57 148.672h-12.421v12.438h12.421z" opacity=".2"/><path d="m250.548 148.672h-12.421v12.438h12.421z"/><path d="m267.521 148.672h-12.421v12.438h12.421z" opacity=".2"/><path d="m284.498 148.672h-12.42v12.438h12.42z" opacity=".2"/><path d="m301.476 148.672h-12.42v12.438h12.42z" opacity=".2"/><path d="m318.449 148.672h-12.42v12.438h12.42z"/><path d="m335.427 148.672h-12.421v12.438h12.421z" opacity=".2"/><path d="m352.405 148.672h-12.421v12.438h12.421z" opacity=".2"/><path d="m369.378 148.672h-12.421v12.438h12.421z" opacity=".2"/><path d="m386.355 148.672h-12.42v12.438h12.42z" opacity=".2"/><path d="m403.328 148.672h-12.42v12.438h12.42z" opacity=".2"/><path d="m420.306 148.672h-12.42v12.438h12.42z" opacity=".2"/><path d="m437.284 148.672h-12.421v12.438h12.421z" opacity=".2"/><path d="m454.257 148.672h-12.421v12.438h12.421z" opacity=".2"/><path d="m471.235 148.672h-12.421v12.438h12.421z" opacity=".2"/><path d="m488.208 148.672h-12.421v12.438h12.421z"/></g><path d="m357.629 194.432c9.377 0 16.978-7.612 16.978-17.002s-7.601-17.003-16.978-17.003c-9.376 0-16.978 7.613-16.978 17.003s7.602 17.002 16.978 17.002z" fill="#767d9f"/><path d="m356.748 155.8c1.694 7.405 3.132 14.865 4.314 22.381.355 2.233.672 4.588-.137 6.699-.676 1.76-2.054 3.135-3.135 4.676s-1.899 3.516-1.242 5.281 2.576 2.73 4.407 3.228c5.238 1.414 10.823.385 16.038-1.146 2.361-.609 4.624-1.548 6.724-2.789 2.21-1.405 4.021-3.355 5.686-5.364 7.601-9.23 12.577-20.308 17.261-31.318-3.01.274-6.042-.172-8.845-1.303s-5.297-2.914-7.276-5.201c-1.919-2.258-3.326-5.403-2.245-8.163-3.169 1.741-6.933 1.858-10.346 3.048-2.117.809-4.154 1.813-6.086 2.999-2.331 1.349-4.648 2.724-6.953 4.125-2.634 1.589-5.103 3.003-8.165 2.847z" fill="#e5c298"/><path d="m392.257 168.565c-2.975 5.798-6.846 11.371-12.372 14.823s-12.966 4.388-18.502.975c-2.727-1.667-4.791-4.203-7.172-6.338-2.381-2.136-5.356-3.965-8.554-3.687-3.526.308-6.286 3.062-8.648 5.7-3.583 4.008-7.045 8.187-9.582 12.931-4.868 9.118-6.022 19.777-5.808 30.114s1.709 20.62 1.743 30.957c.049 12.716-2.103 25.33-4.28 37.857 20.011-2.468 40.047 2.925 60.102 4.968 12.834 1.322 25.766 1.292 38.668 1.258 2.269 0 4.684-.058 6.573-1.316 1.155-.844 2.089-1.955 2.722-3.238 1.782-3.291 2.498-7.046 2.994-10.756 1.261-9.372 1.3-18.86 1.334-28.319.088-22.917.171-45.917-2.736-68.653-.716-5.593-1.631-11.215-3.773-16.447-2.143-5.232-5.638-10.044-10.527-12.848-3.14-1.804-10.419-4.944-14.12-3.125-4.153 2.028-6.071 11.263-8.062 15.144z" fill="#767d9f"/><path d="m393.737 233.278c-.755-14.14-3.827-29.231 2.712-41.781 1.606-3.082-4.158-6.929-2.376-9.913 2.174-3.638 3.823-7.567 4.898-11.668.37-1.409.667-2.901.316-4.315-.647-2.58-3.194-4.116-5.356-5.686-2.385-1.735-3.612-7.026-4.382-9.888-.769-2.862 6.121.585 8.891-.434 3.846-1.409 8.735-.522 12.571.907 2.143.79 4.47.858 6.754.917 4.435.117 8.885.229 13.287-.317 1.977-.249 3.958-.624 5.945-.512 5.068.287 9.474 3.759 12.474 7.865 2.999 4.105 4.908 8.888 7.366 13.335 2.05 3.706 4.494 7.207 6.242 11.064 1.549 3.413 2.527 7.08 3.496 10.727l2.498 9.357c.437 1.338.644 2.741.613 4.149-.126 1.497-.788 2.891-1.46 4.223-2.541 4.933-5.588 9.589-9.091 13.891-5.253 6.451-11.631 12.268-14.752 19.991-1.217 3.009-1.894 6.207-2.513 9.396-2.493 12.754-4.265 25.639-5.307 38.593-5.689-2.636-11.652-4.633-17.781-5.953-3.055-.655-6.143-1.143-9.251-1.463-2.721-.283-6.232.253-8.822-.488-4.333-1.233-4.811-8.572-5.468-12.414-1.052-6.119-1.261-12.346-1.3-18.528-.049-7.031.171-14.048-.204-21.055z" fill="#4c4981"/><path d="m298.574 206.836c2.05 11.703 4.309 23.439 8.764 34.434-.112.107-.224.205-.336.302-.394.337-.803.654-1.232.976-.998.702-2.093 1.297-2.921 2.213-.313.351-.561.756-.73 1.195-.153.343-.232.714-.232 1.09 0 .375.079.746.232 1.089-2.323 1.029-5.02.712-7.625.615-2.244-.083-4.421 0-6.222 1.233-2.503 1.726-3.258 5.042-3.662 8.055-.149 1.099-.277 2.199-.384 3.301-.104 1.024-.189 2.051-.253 3.082-.221 3.409-.252 6.827-.093 10.239.026.624.06 1.249.102 1.873-7.955-.191-15.205-4.345-22.065-8.382-1.568-.922-3.185-1.892-4.202-3.413-.938-1.494-1.335-3.265-1.125-5.017 0-.249.044-.488.078-.742.218-1.447.592-2.866 1.115-4.232 2.146-5.82 5.31-11.211 9.343-15.92 1.743-2.038 3.705-4.032 4.519-6.592.355-1.117.486-2.301.847-3.413 1.616-4.818 7.449-7.095 9.445-11.771.487-1.116.711-2.34 1.315-3.413.543-.891 1.245-1.676 2.069-2.316.356-.297.726-.585 1.091-.873 3.421-2.685 6.717-5.521 9.889-8.508.59-.556 1.175-1.118 1.752-1.687-.077 2.207.098 4.415.521 6.582z" fill="#4c4981"/><path d="m347.638 172.227c-.701.741-1.461 1.438-2.206 2.131l-.199.18-.789.732c-1.432 1.237-2.671 2.682-3.676 4.286l-.083.136c-2.483 4.452-1.563 9.932-.871 14.989.857 6.301 1.243 12.657 1.154 19.016-.127 8.776-1.159 17.494-1.179 26.261 0 1.99.044 3.974.132 5.964.141 3.232.385 6.46.677 9.688.316 3.54.696 7.075 1.051 10.61.283 2.735.551 5.466.774 8.196.112 1.414.22 2.824.307 4.238.102 1.657.185 3.32.234 4.978.034 1.053.054 2.101.054 3.155v1.789c0 1.141-.031 2.279-.093 3.413-.065 1.46-.164 2.923-.297 4.389-.151 1.594-.419 3.335-1.539 4.456-.068.068-.141.132-.214.195l-1.577-.195c-10.875-1.304-21.854-1.5-32.768-.585.239-1.648.458-3.291.672-4.944.097-.78.195-1.565.287-2.35.107-.897.21-1.795.307-2.692.112-.975.214-1.95.312-2.925.253-2.513.475-5.027.667-7.543.282-3.67.496-7.347.642-11.03.072-1.758.127-3.519.166-5.28.055-2.185.081-4.371.078-6.558 0-2.126-.018-4.255-.054-6.388 0-.702-.029-1.404-.087-2.101-.042-.628-.129-1.252-.258-1.868-.362-1.419-.851-2.803-1.461-4.135-.107-.253-.209-.487-.312-.755-.058-.132-.112-.269-.165-.4 2.804-2.502 4.8-5.851 6.719-9.147 3.111-5.31 6.295-10.854 6.816-16.988s-2.522-13.024-8.374-14.896c-1.592-.488-3.277-.624-4.918-.912-1.548-.273-4.776-.892-6.568-2.004-.974 1.001-1.947 1.985-2.921 2.95.059-1.473.418-2.918 1.056-4.247l.692.034c-.057-.156-.083-.321-.078-.487 0-.522.36-1.112 1.129-1.765 2.294-1.951 5.901-2.385 7.347-5.023.604-1.097.706-2.403 1.193-3.554 1.398-3.282 5.41-4.491 7.825-7.114s3.018-6.339 4.971-9.264c1.458-2.137 3.481-3.825 5.842-4.876.195-.093.395-.185.594-.268 4.042-1.731 8.842-2.126 13.03-2.117 1.626 0 5.842.049 7.907.873.334.12.641.308.9.551 2.201 2.399-1.222 7.465-2.848 9.201z" fill="#4c4981"/><path d="m299.3 195.695c3.761-1.134 7.71-1.508 11.616-1.1 3.907.407 7.694 1.588 11.141 3.474 3.506 1.951 6.651 4.672 8.579 8.182 2.897 5.266 2.77 11.615 2.566 17.627-.102 3.008-.234 6.124-1.558 8.825-1.534 3.125-4.426 5.271-7.377 7.026-1.848 1.181-3.873 2.059-5.998 2.599-3.272.712-6.67.107-9.967-.488-3.583-.663-7.43-1.462-9.918-4.134-1.46-1.551-2.259-3.565-3.047-5.534-1.133-2.845-2.269-5.686-3.409-8.524-1.972-4.929-2.639-9.03-.034-13.833 1.183-2.189 2.629-4.237 3.798-6.441.584-1.121 2.678-7.391 3.608-7.679z" fill="#4c4981"/><path d="m503.929 279.985v14.579c-9.987 4.155-20.701 6.276-31.516 6.241h-131.309c-.068.068-.141.132-.214.195l-1.578-.195h-233.574c-19.5977 0-37.7586-5.295-52.6526-14.316v-22.258l112.3346-12.985h.088l65.418 5.549 16.929 1.463 8.793.746 18.2 1.545 9.363.795 13.633 1.161 1.918.161 9.826.833 13.331 1.097 18.745 1.59 31.249 2.657 21.983 1.868 36.097 3.067 6.865.58.741.063.642.054 9.066.77 9.952.849 1.154.097z" fill="#504f60"/><path d="m371.982 279.448-140.778-24.062-5.458 27.641 64.532 7.738 19.87 2.492 54.658-10.781z" fill="#9c9ca1"/><path d="m299.11 291.872 70.531-13.277c.352-.067.716-.056 1.064.034.348.089.672.255.948.485.276.229.499.518.651.844s.23.681.229 1.041c.001.571-.197 1.124-.561 1.563s-.87.737-1.431.841l-68.88 12.916z" fill="#9c9ca1"/><path d="m329.706 250.12c2.196-.205 4.421-.551 6.398-1.526 2.434-1.214 4.328-3.306 6.582-4.847 4.957-3.413 11.588-3.871 17.27-1.911s10.425 6.158 13.745 11.17c2.206 3.34 3.861 7.602 2.303 11.288-.534 1.127-1.208 2.182-2.006 3.14l-4.06 5.315c-.772 1.117-1.7 2.117-2.756 2.969-1.519 1.107-3.408 1.561-5.268 1.834-4.942.721-9.972.312-14.953.643-8.554.571-16.909 3.331-25.483 3.238-4.928-.054-9.792-1.048-14.607-2.043l-21.311-4.388c-3.71-.761-7.902-1.873-9.65-5.242-.784-1.516-.93-3.272-1.023-4.978-.253-4.701 0-9.928 3.253-13.316 3.057-3.18 7.892-4.184 11.544-6.534 4.469-2.882 5.945-1.951 10.658.214 9.195 4.171 19.311 5.884 29.364 4.974z" fill="#e5c298"/><path d="m331.581 250.242c2.196-.205 4.421-.551 6.398-1.526 2.434-1.214 4.328-3.306 6.582-4.847 4.957-3.413 11.588-3.871 17.27-1.911s10.425 6.158 13.745 11.171c2.206 3.34 3.861 7.601 2.303 11.287-.534 1.127-1.208 2.182-2.006 3.141l-4.06 5.314c-.772 1.118-1.7 2.118-2.756 2.97-1.519 1.107-3.408 1.56-5.268 1.833-4.942.722-9.972.312-14.953.644-8.554.57-16.909 3.33-25.483 3.237-4.928-.053-9.792-1.048-14.607-2.043l-21.311-4.388c-3.71-.761-7.902-1.872-9.65-5.242-.784-1.516-.93-3.271-1.023-4.978-.253-4.7 0-9.927 3.253-13.316 3.057-3.179 7.892-4.184 11.544-6.534 4.469-2.881 5.945-1.95 10.658.215 9.194 4.17 19.311 5.883 29.364 4.973z" fill="#000" opacity=".05"/><path d="m415.286 243.435c-5.979 2.316-11.992 4.642-18.253 6.022-10.497 2.316-21.482 1.95-31.896 4.598-5.502 1.404-10.97 3.666-16.622 3.208-2.527-.205-4.967-.975-7.426-1.56-13.813-3.413-29.515-2.307-40.733 6.47-3.836 2.999-6.977 6.739-9.825 10.727-.609.862-1.021 1.847-1.206 2.887-.185 1.039-.139 2.107.136 3.126s.772 1.965 1.454 2.77 1.534 1.449 2.494 1.886c4.362 2.009 9.035 3.257 13.817 3.691 6.393.565 12.815-.342 19.174-1.249 9.436-1.34 18.877-2.686 28.288-4.193 3.379-.541 6.758-1.102 10.157-1.531 24.456-3.096 49.356.668 73.875-1.916 2.479-.263 5.001-.605 7.255-1.663 5.706-2.682 8.53-9.752 7.352-15.964-1.178-6.211-5.726-11.375-11.199-14.544-4.586-2.668-9.533-3.745-14.64-4.876-4.743-1.107-7.635.356-12.202 2.111z" fill="#e5c298"/><path d="m467.739 206.3c2.697 3.54 3.272 8.289 2.979 12.721-.292 4.432-1.343 8.816-1.499 13.268-.214 6.104 1.256 12.189 1.008 18.275-.176 4.256-1.183 8.43-2.376 12.516-1.407 4.822-3.443 10.005-7.888 12.321-5.901 3.077-18.278 1.346-24.485 3.755.564-3.525 5.979-8.63 6.543-12.156.39-2.438.784-4.944.365-7.387-.535-3.115-2.361-5.88-4.528-8.182-3.447-3.661-7.946-6.416-12.887-7.313-4.942-.898-17.042-.161-20.995 2.964-.487-3.228 8.569-6.339 11.753-7.036 1.588-.356 3.409-.156 4.679-1.165 2.435-1.912.667-5.72.784-8.777.093-2.438 1.515-4.671 1.802-7.109.487-3.901-2.055-7.875-1.057-11.702.37-1.414 1.193-2.657 1.763-4.003 1.733-4.12.974-8.821.048-13.199-.574-2.75-1.134-5.851.395-8.197 1.417-2.189 5.438 5.608 8.014 5.247 8.506-1.195 16.204-7.509 23.074-2.341 3.5 2.633 3.958 5.364 5.355 9.123 1.359 3.579 4.879 5.412 7.153 8.377z" fill="#000" opacity=".1"/><path d="m469.2 206.3c2.697 3.54 3.271 8.289 2.979 12.721s-1.344 8.816-1.499 13.268c-.215 6.104 1.256 12.189 1.008 18.275-.176 4.256-1.184 8.43-2.376 12.516-1.408 4.822-3.443 10.005-7.888 12.321-5.901 3.077-18.278 1.346-24.486 3.755.565-3.525 5.979-8.63 6.544-12.156.39-2.438.784-4.944.365-7.387-.535-3.115-2.361-5.88-4.528-8.182-3.447-3.661-7.946-6.416-12.888-7.313-4.942-.898-17.041-.161-20.994 2.964-.487-3.228 8.569-6.339 11.753-7.036 1.587-.356 3.408-.156 4.679-1.165 2.435-1.912.667-5.72.784-8.777.093-2.438 1.514-4.671 1.801-7.109.487-3.901-2.054-7.874-1.056-11.702.37-1.414 1.193-2.657 1.762-4.003 1.734-4.12.974-8.821.049-13.199-.574-2.75-1.134-5.851.395-8.197 1.416-2.189 4.187-3.018 6.762-3.384 8.624-1.168 17.362 1.09 24.345 6.29 3.501 2.633 3.958 5.364 5.356 9.123 1.339 3.579 4.859 5.412 7.133 8.377z" fill="#4c4981"/><path d="m147.04 183.198 26.472 97.977c.325 1.2 1.007 2.273 1.956 3.075s2.12 1.296 3.356 1.415l119.152 11.464c.971.093 1.95-.047 2.856-.411.905-.363 1.711-.938 2.349-1.677s1.09-1.621 1.317-2.571c.228-.95.225-1.941-.008-2.889l-28.989-118.183c-.345-1.405-1.176-2.641-2.346-3.49-1.169-.849-2.602-1.256-4.042-1.147l-116.654 8.738c-.895.07-1.765.336-2.546.781-.78.445-1.454 1.057-1.971 1.792-.518.735-.867 1.576-1.023 2.462s-.114 1.796.121 2.664z" fill="#9c9ca1"/><path d="m383.234 202.316c7.234 0 13.098-5.948 13.098-13.287 0-7.338-5.864-13.286-13.098-13.286-7.233 0-13.097 5.948-13.097 13.286 0 7.339 5.864 13.287 13.097 13.287z" fill="#fff"/><path d="m393.99 164.791s2.761 8.221-5.385 11.678l-1.042 1.824 5.103 5.041s6.29-11.492 5.609-15.573c0 0-.974-4.145-4.285-2.97z" fill="#fff"/><path d="m384.739 202.316c6.975 0 12.63-5.662 12.63-12.648 0-6.985-5.655-12.648-12.63-12.648s-12.63 5.663-12.63 12.648c0 6.986 5.655 12.648 12.63 12.648z" fill="#81defd"/><path d="m398.338 169.628-2.006-3.315-2.922-.415c.624-10.917-2.205-14.169-2.205-14.169l-.657-.064-2.863-.278-5.385-5.597v-1.59c7.566.902 11.748 4.501 14.007 8.718 3.993 7.402 2.031 16.71 2.031 16.71z" fill="#81defd"/><path d="m390.572 149.656v2.009l-2.863-.278-5.385-5.597s8.331 1.867 8.248 3.866z" fill="#000" opacity=".1" stroke="#4c4981" stroke-miterlimit="10"/><path d="m398.338 169.628-2.006-3.315v-13.375c3.968 7.382 2.006 16.69 2.006 16.69z" fill="#000" opacity=".1" stroke="#4c4981" stroke-miterlimit="10"/><path d="m361.401 194.867c3.36-1.942 3.216-8.493-.323-14.632-3.539-6.138-9.132-9.539-12.492-7.596-3.361 1.943-3.216 8.494.323 14.632 3.539 6.139 9.131 9.539 12.492 7.596z" fill="#fff"/><path d="m356.889 182.681c3.54 6.139 7.883 10.239 4.523 12.19-3.359 1.95-13.146.975-16.685-5.169-3.54-6.143-.327-14.627 3.033-16.578 3.359-1.95 5.584 3.404 9.129 9.557z" fill="#81defd"/><path d="m388.405 138.456c0 19.616-13.404 38.52-32.991 38.52-9.407 0-18.429-3.742-25.081-10.404-6.652-6.661-10.389-15.696-10.389-25.117s3.737-18.456 10.389-25.117 15.674-10.404 25.081-10.404c19.587.02 32.991 12.902 32.991 32.522z" fill="#000" opacity=".1"/><path d="m355.414 176.021c19.589 0 35.47-15.904 35.47-35.522 0-19.617-15.881-35.521-35.47-35.521-19.59 0-35.47 15.904-35.47 35.521 0 19.618 15.88 35.522 35.47 35.522z" fill="#e5c298"/><path d="m352.298 124.76c4.221 1.555 6.719 5.924 10.507 8.357 5.355 3.414 12.328 2.531 18.443.844 3.408-.931 6.972-2.067 10.327-1.034.493.219 1.038.297 1.573.225.73-.21 1.09-1.02 1.329-1.741 4.148-12.385 2.283-26.413-3.978-37.8714-1.617-2.9549-3.554-5.8121-6.223-7.8649-2.103-1.6139-4.576-2.672-7.069-3.574-4.556-1.6386-9.268-2.8036-14.061-3.4766-.847-.154-1.712-.1819-2.566-.0829-1.174.1902-2.225.8241-3.272 1.3897-4.484 2.4068-9.456 3.7591-14.539 3.9543-6.816.2585-14.606-1.3506-19.86 3.028-6.329 5.2513-4.752 15.4958-8.856 22.6238-2.717 4.715-7.956 8.138-8.818 13.507-.224 1.641-.12 3.31.307 4.91 2.006 8.26 9.991 14.657 18.502 14.808 1.307.1 2.615-.169 3.778-.775.761-.521 1.434-1.161 1.991-1.897 5.575-6.612 11.953-19.211 22.485-15.33z" fill="#330101"/><path d="m394.477 127.817c-.239.722-.599 1.531-1.33 1.741-.534.072-1.079-.006-1.572-.224-3.355-1.034-6.938.102-10.322 1.033-6.12 1.687-13.107 2.589-18.444-.843-3.792-2.438-6.285-6.826-10.511-8.358-10.532-3.9-16.91 8.719-22.5 15.33-.557.736-1.229 1.377-1.991 1.897-1.162.607-2.471.875-3.778.775-8.482-.151-16.472-6.548-18.502-14.808-.112-.487-.209-.975-.282-1.463 0 .044 0 .083-.025.127-.224 1.641-.12 3.31.307 4.91 2.006 8.26 9.996 14.657 18.502 14.808 1.307.1 2.616-.168 3.778-.775.762-.52 1.434-1.161 1.991-1.897 5.59-6.611 11.968-19.211 22.5-15.329 4.226 1.555 6.719 5.924 10.511 8.357 5.356 3.413 12.324 2.53 18.444.843 3.408-.931 6.967-2.067 10.322-1.033.493.219 1.038.296 1.572.224.731-.21 1.091-1.019 1.33-1.741 1.673-5.067 2.412-10.397 2.181-15.729-.143 4.135-.878 8.229-2.181 12.155z" fill="#000" opacity=".1"/></g></svg>