<svg width="827" height="894" viewBox="0 0 827 894" fill="none" xmlns="http://www.w3.org/2000/svg">
<path d="M1171.75 -712.53C1293.03 -599.43 1374.79 -468.479 1460.55 -328.829C1546.47 -189.029 1636.39 -40.3795 1651.11 122.071C1665.99 284.521 1605.35 460.771 1489.03 597.871C1372.71 734.971 1200.55 832.921 1017.35 873.271C833.99 913.62 639.59 896.371 521.67 792.121C403.59 687.871 362.15 496.621 266.79 364.921C171.59 233.371 22.4701 161.22 2.95008 68.5205C-16.5699 -24.3295 93.3501 -137.729 179.27 -239.579C265.19 -341.43 326.95 -431.729 414.47 -559.229C502.15 -686.729 615.43 -851.429 752.55 -886.079C889.67 -920.879 1050.47 -825.48 1171.75 -712.53Z" fill="#70a3fd"/>
</svg>
