<svg fill="none" height="104" viewBox="0 0 1440 104" width="1440" xmlns="http://www.w3.org/2000/svg" xmlns:xlink="http://www.w3.org/1999/xlink"><clipPath id="a"><rect height="104" rx="52" transform="matrix(-1 0 0 -1 2996 208)" width="1514" x="1498" y="104"/></clipPath><g clip-path="url(#a)"><path d="m1498 93.6-10.93 1.7225c-11.04 1.8525-33.23 5.1025-55.31-8.645-21.55-13.8775-43.1-45.0775-65.18-58.955-22.19-13.7475-44.16-10.4975-66.24 0-21.76 10.3025-44.16 27.8525-65.19 26-22.39-1.7225-44.16-22.5225-66.23-32.9225-21.98-10.4-44.16-10.4-66.24-3.4775-21.56 7.0525-43.11 20.7025-65.19 22.555-22.18 1.7225-44.157-8.6775-66.236-15.6-21.764-7.0525-44.158-10.3025-65.186-5.2-22.395 5.2975-44.158 18.9475-66.237 19.045-22.08-.0975-44.159-13.7475-66.238-10.4-21.659 3.4775-43.107 24.2775-65.186 26-22.29 1.8525-44.158-15.6975-66.238-20.8-21.868-5.2975-44.158 1.8525-66.237 3.4775-21.448 1.625-43.107-1.625-65.186-6.9225-22.079-5.1025-44.158-12.2525-66.238-8.6775-21.658 3.575-43.107 17.225-65.186 29.4775-22.289 12.1225-44.158 22.5225-66.237 24.245-21.869 1.8525-44.159-5.2975-66.238-12.1225-21.448-6.825-43.107-13.975-65.186-12.1225-22.079 1.7225-44.158 12.1225-66.237 5.2-21.7641-7.0525-44.1587-31.1025-65.1865-34.6775-22.3945-3.575-44.15828 13.975-55.72358 22.5225l-10.51392 8.6775v52h10.93457 55.30293 65.1865 66.237 65.186 66.238 66.237 65.186 66.238 65.186 66.237 66.238 65.186 66.238 66.237 65.186 66.236 65.19 66.24 66.23 65.19 66.24 65.18 55.73 10.51z" fill="#3e4c59"/></g></svg>